<?xml version="1.0" standalone="no"?>
<!DOCTYPE svg PUBLIC "-//W3C//DTD SVG 20010904//EN"
 "http://www.w3.org/TR/2001/REC-SVG-20010904/DTD/svg10.dtd">
<svg version="1.0" xmlns="http://www.w3.org/2000/svg"
 width="190.000000pt" height="190.000000pt" viewBox="0 0 190.000000 190.000000"
 preserveAspectRatio="xMidYMid meet">
<metadata>
Created by potrace 1.14, written by Peter Selinger 2001-2017
</metadata>
<g transform="translate(0.000000,190.000000) scale(0.100000,-0.100000)"
fill="#000000" stroke="none">
<path d="M280 1224 c-11 -12 -11 -18 2 -30 14 -14 17 -14 32 1 13 13 14 20 5
31 -15 18 -24 18 -39 -2z"/>
<path d="M627 1234 c9 -4 12 -50 13 -167 0 -178 2 -199 24 -232 28 -43 102
-41 124 3 16 30 23 72 12 72 -5 0 -9 -3 -9 -7 6 -40 -35 -98 -63 -88 -26 10
-32 49 -33 240 l-1 180 -39 2 c-22 1 -35 0 -28 -3z"/>
<path d="M1321 1221 c-15 -28 11 -48 33 -25 13 12 14 19 5 30 -16 19 -26 18
-38 -5z"/>
<path d="M14 1091 c-2 -2 0 -9 5 -15 4 -6 25 -71 47 -143 l39 -133 31 0 c18 0
31 5 31 13 0 21 75 261 85 274 7 8 4 11 -11 10 -11 0 -18 -5 -15 -9 3 -4 -7
-47 -22 -95 -14 -48 -29 -103 -34 -121 -5 -19 -11 -36 -13 -39 -7 -6 -87 248
-82 258 5 7 -53 7 -61 0z"/>
<path d="M268 950 l-3 -150 40 0 c22 0 35 4 30 8 -7 4 -11 59 -10 145 0 75 -2
137 -5 138 -3 0 -15 2 -27 5 -22 4 -22 2 -25 -146z"/>
<path d="M365 948 l0 -148 31 0 30 0 -1 108 c-1 116 5 143 42 167 22 15 25 14
48 -9 27 -27 27 -26 29 -161 1 -53 -2 -93 -9 -97 -5 -4 8 -8 30 -8 l40 0 -6
108 c-4 59 -12 119 -19 134 -25 52 -100 68 -144 30 -11 -9 -16 -12 -13 -5 8
14 -9 27 -38 29 -19 1 -20 -6 -20 -148z"/>
<path d="M875 1086 c-42 -18 -58 -41 -51 -71 7 -28 27 -40 51 -31 20 7 8 36
-15 36 -46 0 -19 44 36 59 16 4 24 10 19 13 -6 4 -24 1 -40 -6z"/>
<path d="M930 1094 c0 -2 9 -13 20 -24 37 -37 13 -81 -56 -100 -58 -17 -78
-45 -69 -100 5 -31 14 -44 35 -55 39 -20 56 -19 80 5 20 20 21 20 24 -2 0 -7
15 -14 31 -15 l30 -1 -5 122 c-3 80 -10 128 -18 139 -13 15 -72 41 -72 31z
m35 -168 c1 -49 -22 -102 -51 -113 -23 -9 -41 25 -40 76 1 40 6 48 36 68 18
13 38 22 44 20 6 -2 11 -25 11 -51z"/>
<path d="M1115 1085 c-40 -17 -56 -47 -62 -115 -10 -106 32 -172 105 -165 20
2 38 8 40 14 9 26 22 8 22 -29 0 -62 -23 -107 -57 -114 -38 -9 -78 7 -93 35
-12 22 -1 38 26 39 19 0 25 30 7 37 -22 9 -47 -10 -51 -37 -8 -49 37 -90 98
-90 44 0 76 16 100 51 22 30 23 42 25 198 0 91 4 171 8 178 5 8 -3 11 -25 9
-22 -2 -34 -8 -36 -20 -3 -16 -5 -16 -22 -1 -24 22 -51 25 -85 10z m86 -27
c15 -19 18 -40 19 -109 0 -78 -2 -89 -25 -113 -27 -29 -34 -31 -58 -13 -25 18
-36 67 -33 144 3 82 17 113 52 113 15 0 34 -10 45 -22z"/>
<path d="M1309 1089 c-8 -5 -9 -9 -4 -9 10 0 11 -224 1 -262 -3 -14 2 -18 28
-18 l32 0 -1 145 c0 80 -2 145 -5 146 -3 0 -12 2 -21 4 -9 1 -23 -1 -30 -6z"/>
<path d="M1473 1088 c-83 -22 -100 -213 -25 -267 31 -22 92 -22 118 0 43 36
59 144 31 211 -22 53 -65 72 -124 56z m71 -35 c29 -58 14 -215 -24 -238 -16
-10 -47 13 -58 42 -13 38 -9 173 7 201 17 32 57 29 75 -5z"/>
<path d="M1635 949 l0 -146 40 -1 c22 -1 35 2 29 6 -11 8 -13 210 -1 229 4 6
2 23 -4 36 -8 18 -19 24 -38 23 l-26 -1 0 -146z"/>
<path d="M1738 1088 c-16 -5 -28 -14 -28 -19 0 -6 8 -6 19 1 35 18 58 12 71
-20 16 -38 21 -232 6 -242 -6 -4 6 -8 27 -8 l37 0 0 88 c0 90 -11 144 -34 175
-19 24 -65 36 -98 25z"/>
</g>
</svg>
